<?xml version="1.0" encoding="utf-8"?>
<!-- Generated by IcoMoon.io -->
<!DOCTYPE svg PUBLIC "-//W3C//DTD SVG 1.1//EN" "http://www.w3.org/Graphics/SVG/1.1/DTD/svg11.dtd">
<svg version="1.1" xmlns="http://www.w3.org/2000/svg" xmlns:xlink="http://www.w3.org/1999/xlink" width="16" height="16" viewBox="0 0 16 16">
<g>
	<line stroke-width="1" x1="" y1="" x2="" y2="" stroke="#449FDB" opacity=""></line>
</g>
	<path d="M0 12.286v-4.286h6v1.429q0 0.232 0.17 0.402t0.402 0.17h2.857q0.232 0 0.402-0.17t0.17-0.402v-1.429h6v4.286q0 0.589-0.42 1.009t-1.009 0.42h-13.143q-0.589 0-1.009-0.42t-0.42-1.009zM0 7.143v-3.429q0-0.589 0.42-1.009t1.009-0.42h3.143v-1.429q0-0.357 0.25-0.607t0.607-0.25h5.143q0.357 0 0.607 0.25t0.25 0.607v1.429h3.143q0.589 0 1.009 0.42t0.42 1.009v3.429h-16zM5.714 2.286h4.571v-1.143h-4.571v1.143zM6.857 9.143v-1.143h2.286v1.143h-2.286z" fill="#000000"></path>
</svg>
