<?xml version="1.0" encoding="utf-8"?>
<!-- Generated by IcoMoon.io -->
<!DOCTYPE svg PUBLIC "-//W3C//DTD SVG 1.1//EN" "http://www.w3.org/Graphics/SVG/1.1/DTD/svg11.dtd">
<svg version="1.1" xmlns="http://www.w3.org/2000/svg" xmlns:xlink="http://www.w3.org/1999/xlink" width="18" height="16" viewBox="0 0 18 16">
<g>
	<line stroke-width="1" x1="" y1="" x2="" y2="" stroke="#449FDB" opacity=""></line>
</g>
	<path d="M0 14.857q0-0.232 0.183-0.402t0.433-0.17h15.911q0.25 0 0.433 0.17t0.183 0.402v1.143h-17.143v-1.143zM0 4.571v-1.143l8.571-3.429 8.571 3.429v1.143h-1.143q0 0.232-0.183 0.402t-0.433 0.17h-13.625q-0.25 0-0.433-0.17t-0.183-0.402h-1.143zM1.143 13.714v-0.571q0-0.232 0.183-0.402t0.433-0.17h0.527v-6.857h2.286v6.857h1.143v-6.857h2.286v6.857h1.143v-6.857h2.286v6.857h1.143v-6.857h2.286v6.857h0.527q0.25 0 0.433 0.17t0.183 0.402v0.571h-14.857z" fill="#000000"></path>
</svg>
