<?xml version="1.0" encoding="utf-8"?>
<!-- Generated by IcoMoon.io -->
<!DOCTYPE svg PUBLIC "-//W3C//DTD SVG 1.1//EN" "http://www.w3.org/Graphics/SVG/1.1/DTD/svg11.dtd">
<svg version="1.1" xmlns="http://www.w3.org/2000/svg" xmlns:xlink="http://www.w3.org/1999/xlink" width="16" height="16" viewBox="0 0 16 16">
<g>
	<line stroke-width="1" x1="" y1="" x2="" y2="" stroke="#449FDB" opacity=""></line>
</g>
	<path d="M0 12.857v-1.714q0-0.357 0.25-0.607t0.607-0.25h2.857q0.357 0 0.607 0.25t0.25 0.607v1.714q0 0.357-0.25 0.607t-0.607 0.25h-2.857q-0.357 0-0.607-0.25t-0.25-0.607zM0 8.286v-1.714q0-0.357 0.25-0.607t0.607-0.25h2.857q0.357 0 0.607 0.25t0.25 0.607v1.714q0 0.357-0.25 0.607t-0.607 0.25h-2.857q-0.357 0-0.607-0.25t-0.25-0.607zM0 3.714v-1.714q0-0.357 0.25-0.607t0.607-0.25h2.857q0.357 0 0.607 0.25t0.25 0.607v1.714q0 0.357-0.25 0.607t-0.607 0.25h-2.857q-0.357 0-0.607-0.25t-0.25-0.607zM5.714 12.857v-1.714q0-0.357 0.25-0.607t0.607-0.25h8.571q0.357 0 0.607 0.25t0.25 0.607v1.714q0 0.357-0.25 0.607t-0.607 0.25h-8.571q-0.357 0-0.607-0.25t-0.25-0.607zM5.714 8.286v-1.714q0-0.357 0.25-0.607t0.607-0.25h8.571q0.357 0 0.607 0.25t0.25 0.607v1.714q0 0.357-0.25 0.607t-0.607 0.25h-8.571q-0.357 0-0.607-0.25t-0.25-0.607zM5.714 3.714v-1.714q0-0.357 0.25-0.607t0.607-0.25h8.571q0.357 0 0.607 0.25t0.25 0.607v1.714q0 0.357-0.25 0.607t-0.607 0.25h-8.571q-0.357 0-0.607-0.25t-0.25-0.607z" fill="#000000"></path>
</svg>
